<svg width="139" height="149" viewBox="0 0 139 149" fill="none" xmlns="http://www.w3.org/2000/svg">
<rect width="139" height="149" rx="20" fill="url(#paint0_linear_1518_4352)"/>
<path d="M55.1718 72.4992C52.7279 95.9611 83.3398 126.648 80.4109 125.999C77.4819 125.35 35.9109 97.4992 45.9109 65.9993C55.9109 34.4993 96.1718 39.4992 92.6718 40.9991C89.1718 42.4991 57.6158 49.0373 55.1718 72.4992Z" fill="white"/>
<ellipse cx="53.4141" cy="35" rx="6.70428" ry="8.94722" transform="rotate(47.1496 53.4141 35)" fill="white"/>
<path d="M46.9139 64.9866C44.6792 64.6517 34.4139 64.5021 32.315 64.9866C30.2162 65.471 25.7528 66.5119 23.9138 68.0022C22.0749 69.4924 20.6071 69.7274 19.4138 71.8558C18.2206 73.9841 17.2798 74.8131 16.9139 77.2556C16.6891 78.7556 15.9139 81.5022 16.9139 85.0022C17.4309 87.3868 20.5924 92.0383 21.9138 94.0022C23.2352 95.966 27.4892 100.258 29.4138 101.502C36.9138 107.502 51.1791 115.667 53.4138 116.002L43.9139 108.002C42.9139 107.502 39.4139 103.502 38.4139 102.502C37.5292 101.617 28.2354 90.723 27.4139 89.5021C26.5923 88.2812 26.0457 87.2658 25.4139 86.0021C24.9139 85.0021 23.9139 82.5021 24.4139 81.0021C24.9138 79.5021 26.1981 78.6072 27.4139 78.0021C28.9139 77.2556 28.4139 77.5021 29.4139 77.2556C30.9139 77.2556 33.1152 77.2556 34.4138 77.2556C35.7125 77.2556 43.4138 77.0021 44.9139 78.5021L46.9139 64.9866Z" fill="white"/>
<path d="M99.9177 74.0006C111.418 73.5006 124.918 79.5004 127.418 80.0004C129.918 80.5004 111.086 72.0003 106.918 71.0004C97.4176 67.5006 80.7199 72.5572 80.9176 71.5004C81.9857 70.5002 87.5038 65.0004 89.0038 62.0006C88.7207 61.5716 90.0898 60.5003 86.5038 57.0004C85.5898 56.1084 81.5038 56.5004 80.2464 56.5005C78.989 56.5007 71.0038 58.5004 67.9177 60.5006C62.5038 63.5005 60.9176 67.0004 59.4177 70.0008C57.9179 73.0012 57.9176 74.5004 57.9176 77.0004C57.9175 79.5004 59.4177 84.0004 59.4177 84.0004C59.4177 84.0004 59.4179 82.0004 59.4177 80.0004C59.4175 78.0004 59.4176 77.5005 59.9176 75.0004C60.4176 72.5004 61.9177 71.0008 62.9176 69.5006C63.9174 68.0004 69.0038 64.0004 69.9177 63.5006C70.7117 63.0664 73.4988 62.1662 74.4177 62.0006C75.3367 61.835 80.1164 61.1806 80.9177 61.1211C81.5519 61.0741 83.4177 60.9693 83.9177 62.0006C84.4177 63.032 82.0064 64.251 81.3494 65.0006C80.5388 65.9255 79.0313 66.9366 78.4177 67.5006C77.3895 68.2694 76.3079 69.3351 75.4177 70.0006C74.5275 70.6662 73.3314 71.5008 72.9176 74.0006C72.5038 76.5004 74.4177 78.0007 76.4177 78.5007C78.4177 79.0007 88.4177 74.5006 99.9177 74.0006Z" fill="white"/>
<defs>
<linearGradient id="paint0_linear_1518_4352" x1="70" y1="149" x2="70" y2="-6.19698e-08" gradientUnits="userSpaceOnUse">
<stop stop-color="#007AFF"/>
<stop offset="1" stop-color="#18ADFE"/>
<stop offset="1" stop-color="#005FEE" stop-opacity="0"/>
</linearGradient>
</defs>
</svg>
