<svg width="24" height="16" viewBox="0 0 24 16" fill="none" xmlns="http://www.w3.org/2000/svg">
<path d="M12 0C12.9283 0 13.8185 0.406896 14.4749 1.13117C15.1313 1.85545 15.5 2.83778 15.5 3.86207C15.5 4.88635 15.1313 5.86869 14.4749 6.59296C13.8185 7.31724 12.9283 7.72414 12 7.72414C11.0717 7.72414 10.1815 7.31724 9.52513 6.59296C8.86875 5.86869 8.5 4.88635 8.5 3.86207C8.5 2.83778 8.86875 1.85545 9.52513 1.13117C10.1815 0.406896 11.0717 0 12 0ZM5 2.75862C5.56 2.75862 6.08 2.92414 6.53 3.22207C6.38 4.8 6.8 6.3669 7.66 7.59172C7.16 8.65103 6.16 9.37931 5 9.37931C4.20435 9.37931 3.44129 9.03054 2.87868 8.40973C2.31607 7.78892 2 6.94692 2 6.06897C2 5.19101 2.31607 4.34901 2.87868 3.7282C3.44129 3.10739 4.20435 2.75862 5 2.75862ZM19 2.75862C19.7956 2.75862 20.5587 3.10739 21.1213 3.7282C21.6839 4.34901 22 5.19101 22 6.06897C22 6.94692 21.6839 7.78892 21.1213 8.40973C20.5587 9.03054 19.7956 9.37931 19 9.37931C17.84 9.37931 16.84 8.65103 16.34 7.59172C17.2119 6.3497 17.6166 4.78477 17.47 3.22207C17.92 2.92414 18.44 2.75862 19 2.75862ZM5.5 14.069C5.5 11.7848 8.41 9.93103 12 9.93103C15.59 9.93103 18.5 11.7848 18.5 14.069V16H5.5V14.069ZM0 16V14.3448C0 12.811 1.89 11.52 4.45 11.1448C3.86 11.8952 3.5 12.9324 3.5 14.069V16H0ZM24 16H20.5V14.069C20.5 12.9324 20.14 11.8952 19.55 11.1448C22.11 11.52 24 12.811 24 14.3448V16Z" fill="#007AFF"/>
</svg>
