<svg width="18" height="22" viewBox="0 0 18 22" fill="none" xmlns="http://www.w3.org/2000/svg">
<path fill-rule="evenodd" clip-rule="evenodd" d="M18 17.9289C18 21.5782 12.8636 22 9.00114 22L8.72473 21.9998C6.26387 21.9939 0 21.8426 0 17.9068C0 14.332 4.92995 13.8543 8.76305 13.8362L9.27753 13.8359C11.7382 13.8418 18 13.9931 18 17.9289ZM9.00114 15.4965C4.15909 15.4965 1.70455 16.3069 1.70455 17.9068C1.70455 19.521 4.15909 20.3392 9.00114 20.3392C13.842 20.3392 16.2955 19.5288 16.2955 17.9289C16.2955 16.3147 13.842 15.4965 9.00114 15.4965ZM9.00114 0C12.3284 0 15.0341 2.63729 15.0341 5.8791C15.0341 9.1209 12.3284 11.7571 9.00114 11.7571H8.96477C5.64432 11.7471 2.95455 9.10872 2.96587 5.87578C2.96587 2.63729 5.67273 0 9.00114 0ZM9.00114 1.58105C6.56818 1.58105 4.58861 3.50864 4.58861 5.8791C4.58068 8.24181 6.54545 10.1683 8.96818 10.1771L9.00114 10.9677V10.1771C11.433 10.1771 13.4114 8.24845 13.4114 5.8791C13.4114 3.50864 11.433 1.58105 9.00114 1.58105Z" fill="black"/>
</svg>
