<svg width="150" height="28" viewBox="0 0 150 28" fill="none" xmlns="http://www.w3.org/2000/svg">
<path d="M130.494 13.8674C130.426 13.8693 130.346 13.8843 130.249 13.9156C128.823 14.3771 126.651 15.5913 124.727 16.1353C125.068 16.3328 125.44 16.5073 125.825 16.6457C126.256 16.461 126.676 16.2773 127.033 16.0932C127.47 15.8674 127.807 15.6328 127.947 15.4408L128.362 15.7064C128.132 16.0209 127.74 16.2648 127.276 16.5044C127.046 16.6237 126.796 16.7397 126.538 16.8541C126.775 16.9073 127.012 16.9448 127.247 16.9628C127.353 16.9711 127.458 16.9757 127.563 16.9763C128.061 16.6878 128.533 16.3151 128.685 16.0472L129.129 16.2671C129.02 16.4593 128.856 16.644 128.66 16.8163C129.151 16.6549 129.596 16.3627 129.966 15.9026L130.193 15.6193L130.384 15.9253C130.532 16.1622 130.731 16.3604 130.958 16.531C131.125 16.507 131.273 16.4906 131.425 16.4823V15.572C131.12 15.357 130.922 15.0159 130.922 14.6336C130.922 14.4793 130.954 14.3264 131.018 14.184C130.938 14.0796 130.856 13.9975 130.773 13.9469C130.705 13.905 130.637 13.8768 130.555 13.8692C130.535 13.8675 130.515 13.8668 130.494 13.8674ZM133.835 13.8674C133.825 13.8677 133.814 13.8683 133.804 13.8692C133.721 13.8768 133.654 13.905 133.585 13.9469C133.503 13.9975 133.42 14.0796 133.341 14.184C133.404 14.3264 133.437 14.4793 133.437 14.6336C133.437 15.0159 133.239 15.357 132.934 15.572V16.4823C133.091 16.4909 133.262 16.51 133.401 16.531C133.627 16.3604 133.826 16.1622 133.974 15.9253L134.165 15.6193L134.393 15.9026C134.762 16.3627 135.207 16.6549 135.699 16.8163C135.502 16.644 135.338 16.4593 135.23 16.2671L135.674 16.0472C135.826 16.3151 136.297 16.6878 136.796 16.9763C136.901 16.9757 137.006 16.9711 137.112 16.9628C137.346 16.9448 137.584 16.9073 137.82 16.8541C137.563 16.7397 137.313 16.6237 137.082 16.5044C136.618 16.2648 136.227 16.0209 135.996 15.7064L136.411 15.4408C136.552 15.6328 136.889 15.8674 137.326 16.0932C137.682 16.2773 138.103 16.461 138.533 16.6457C138.919 16.5073 139.291 16.3328 139.632 16.1353C137.707 15.5913 135.536 14.3771 134.109 13.9156C133.999 13.8798 133.911 13.8653 133.835 13.8674ZM132.179 13.9538C131.76 13.9538 131.425 14.2666 131.425 14.6588C131.425 15.051 131.76 15.3639 132.179 15.3639C132.599 15.3639 132.934 15.051 132.934 14.6588C132.934 14.2666 132.599 13.9538 132.179 13.9538ZM131.928 15.7849V16.5086C132.015 16.5264 132.109 16.556 132.179 16.5934C132.264 16.55 132.345 16.527 132.431 16.5086V15.7849C132.35 15.8004 132.265 15.8086 132.179 15.8086C132.093 15.8086 132.009 15.8004 131.928 15.7849ZM131.533 16.9497C131.484 16.9504 131.435 16.9523 131.386 16.9556C130.982 16.9832 130.481 17.1048 130.275 17.1962C129.806 17.4036 129.61 17.6011 129.513 17.7832C129.417 17.9653 129.413 18.1592 129.413 18.3938C129.413 18.6679 129.548 18.8701 129.794 19.064C130.041 19.2576 130.397 19.4206 130.763 19.556C131.439 19.8873 132.151 20.2301 132.713 20.613C132.868 20.7152 133.065 20.7793 133.217 20.8532C133.365 20.7076 133.437 20.5732 133.437 20.4503C133.437 20.3767 133.416 20.2955 133.377 20.2097C132.993 19.5317 132.271 19.2046 131.512 18.8139L131.511 18.8155C131.185 18.6975 130.881 18.6288 130.67 18.6288L130.558 18.1835C131.055 17.9511 131.42 17.7559 131.637 17.5702C131.85 17.3885 131.929 17.2396 131.927 17.0029C131.801 16.9513 131.658 16.9484 131.533 16.9497ZM132.825 16.9497C132.694 16.954 132.533 16.9517 132.432 17.0029C132.43 17.2396 132.509 17.3885 132.721 17.5702C132.938 17.7559 133.303 17.9511 133.801 18.1835L133.689 18.6288C133.438 18.6288 133.059 18.7248 132.666 18.8855C132.982 19.0745 133.282 19.2947 133.53 19.5793C133.552 19.5714 133.574 19.5642 133.596 19.556C133.962 19.4206 134.318 19.2576 134.564 19.064C134.811 18.8701 134.946 18.6679 134.946 18.3938C134.946 18.1592 134.942 17.9653 134.845 17.7832C134.749 17.6011 134.553 17.4036 134.084 17.1962C133.878 17.1048 133.377 16.9832 132.972 16.9556C132.923 16.9523 132.874 16.9504 132.825 16.9497ZM132.179 17.7073C132.119 17.7832 132.052 17.8532 131.977 17.917C131.961 17.9304 131.944 17.9439 131.928 17.9574V18.4612C132.013 18.4974 132.097 18.5358 132.18 18.5766C132.262 18.5358 132.346 18.4977 132.431 18.4612V17.9574C132.414 17.9442 132.398 17.9308 132.381 17.917C132.307 17.8532 132.239 17.7832 132.179 17.7073ZM130.999 20.1719C130.949 20.2715 130.922 20.3658 130.922 20.4503C130.922 20.5923 131.017 20.7487 131.215 20.9206C131.413 21.0925 131.698 21.2634 131.991 21.4218C132.284 21.5802 132.583 21.7268 132.823 21.8724C132.943 21.9454 133.049 22.017 133.137 22.1018C133.226 22.1866 133.311 22.296 133.311 22.4479C133.311 22.5724 133.244 22.6911 133.164 22.765C133.084 22.839 132.995 22.8843 132.903 22.9257C132.831 22.9583 132.755 22.9875 132.678 23.0168C132.884 23.1584 133.074 23.3119 133.228 23.4641C133.313 23.4276 133.399 23.3908 133.485 23.3524C133.704 23.2534 133.911 23.143 134.048 23.022C134.186 22.9011 134.254 22.788 134.254 22.624C134.254 22.3319 134.141 22.1117 133.953 21.9102C133.765 21.709 133.497 21.5368 133.218 21.3889C132.939 21.241 132.653 21.1184 132.419 20.9942C132.302 20.9321 132.197 20.871 132.107 20.7921C132.102 20.7881 132.098 20.7835 132.093 20.7793C131.764 20.5725 131.339 20.331 130.999 20.1719ZM131.075 21.4244C130.82 21.5644 130.579 21.7248 130.406 21.9102C130.217 22.1113 130.104 22.3319 130.104 22.624C130.104 22.788 130.173 22.9011 130.31 23.022C130.447 23.143 130.654 23.2534 130.874 23.3524C130.957 23.3898 131.04 23.4256 131.123 23.4615C131.722 23.7487 132.277 24.0225 132.821 24.1609C132.948 24.1204 132.973 24.01 132.945 23.8749C132.477 23.4362 132.007 23.1759 131.455 22.9257C131.363 22.8843 131.275 22.839 131.195 22.765C131.115 22.6911 131.047 22.5724 131.047 22.4479C131.047 22.296 131.133 22.1866 131.221 22.1018C131.309 22.017 131.415 21.9454 131.535 21.8724C131.581 21.8451 131.626 21.8185 131.673 21.7925C131.468 21.6798 131.261 21.5595 131.075 21.4244ZM132.179 22.0617C132.09 22.109 132.004 22.1547 131.928 22.1978V22.5974C131.951 22.6076 131.975 22.6185 131.999 22.6293C132.057 22.6516 132.117 22.675 132.179 22.7016C132.267 22.6641 132.353 22.6313 132.431 22.602V22.1978C132.348 22.1514 132.264 22.1061 132.179 22.0617ZM131.62 24.2299C131.638 24.3548 131.7 24.4685 131.803 24.5868C131.927 24.7294 132.107 24.8685 132.297 24.9999C132.488 25.1311 132.686 25.2537 132.852 25.3868C133.018 25.5195 133.185 25.6743 133.185 25.9143C133.185 26.2051 133.002 26.4411 132.778 26.7073C132.553 26.9735 132.264 27.2519 131.975 27.5086C131.911 27.5658 131.85 27.6161 131.787 27.671C132.045 27.5444 132.314 27.3909 132.567 27.2191C133.271 26.7405 133.814 26.1128 133.814 25.6793C133.814 25.5478 133.762 25.443 133.658 25.3279C133.553 25.2129 133.398 25.0995 133.23 24.9907C133.063 24.8816 132.886 24.7781 132.735 24.6568C132.717 24.6423 132.699 24.6279 132.682 24.6128C132.274 24.5112 131.931 24.3761 131.62 24.2299ZM131.372 24.8346C131.291 24.8872 131.209 24.9381 131.128 24.9907C130.961 25.0995 130.805 25.2129 130.701 25.3279C130.597 25.443 130.544 25.5478 130.544 25.6793C130.544 25.8939 130.669 26.1591 130.9 26.4316C131.101 26.6679 131.376 26.9058 131.681 27.1211C131.734 27.0731 131.788 27.0242 131.84 26.9752C131.752 26.8861 131.669 26.7974 131.593 26.7096C131.362 26.4434 131.173 26.2084 131.173 25.9143C131.173 25.6743 131.341 25.5195 131.507 25.3868C131.585 25.324 131.67 25.2638 131.759 25.2037C131.636 25.1081 131.516 25.0029 131.412 24.8826C131.399 24.8668 131.385 24.851 131.372 24.8346ZM132.179 25.5005C132.088 25.5616 132.001 25.6201 131.928 25.673V26.3465C131.946 26.3691 131.964 26.3918 131.984 26.4138C132.045 26.4845 132.113 26.5581 132.187 26.6327C132.257 26.5588 132.324 26.4861 132.383 26.4161C132.4 26.3964 132.415 26.3764 132.431 26.3566V25.673C132.357 25.6198 132.271 25.5619 132.179 25.5005Z" fill="#007AFF"/>
<path d="M43.7671 3.28964V11.8946H42.7683L38.1233 5.13836H38.04V11.8946H37.0076V3.28964H38.0068L42.6683 10.0627H42.7513V3.28964H43.7671ZM53.0248 7.59211C53.0248 8.49968 52.8623 9.28396 52.5377 9.94503C52.2131 10.6061 51.7677 11.1159 51.2016 11.4744C50.6357 11.833 49.9891 12.0122 49.2621 12.0122C48.5351 12.0122 47.8885 11.833 47.3227 11.4744C46.7565 11.1159 46.3111 10.6061 45.9866 9.94503C45.662 9.28396 45.4995 8.49968 45.4995 7.59211C45.4995 6.68455 45.662 5.90026 45.9866 5.23919C46.3111 4.57812 46.7565 4.06834 47.3227 3.7098C47.8885 3.35126 48.5351 3.17198 49.2621 3.17198C49.9891 3.17198 50.6357 3.35126 51.2016 3.7098C51.7677 4.06834 52.2131 4.57812 52.5377 5.23919C52.8623 5.90026 53.0248 6.68455 53.0248 7.59211ZM52.0259 7.59211C52.0259 6.847 51.9022 6.21817 51.6554 5.70556C51.4112 5.19298 51.0795 4.80503 50.6605 4.54171C50.2444 4.27842 49.7782 4.14675 49.2621 4.14675C48.7461 4.14675 48.2786 4.27842 47.8596 4.54171C47.4432 4.80503 47.1117 5.19298 46.8646 5.70556C46.6204 6.21817 46.4984 6.847 46.4984 7.59211C46.4984 8.33719 46.6204 8.96605 46.8646 9.47863C47.1117 9.99124 47.4432 10.3792 47.8596 10.6425C48.2786 10.9058 48.7461 11.0374 49.2621 11.0374C49.7782 11.0374 50.2444 10.9058 50.6605 10.6425C51.0795 10.3792 51.4112 9.99124 51.6554 9.47863C51.9022 8.96605 52.0259 8.33719 52.0259 7.59211ZM54.7093 3.28964L57.2399 10.5333H57.3399L59.8702 3.28964H60.9524L57.8227 11.8946H56.7571L53.6271 3.28964H54.7093ZM61.8973 11.8946H60.8151L63.9451 3.28964H65.0107L68.1404 11.8946H67.0585L64.5113 4.65095H64.4445L61.8973 11.8946ZM62.2971 8.53326H66.6587V9.45762H62.2971V8.53326ZM72.2882 11.8946V3.0506H75.5736C76.2465 3.0506 76.8111 3.17727 77.2675 3.43063C77.7266 3.68397 78.0733 4.03231 78.3071 4.47565C78.5437 4.91612 78.6619 5.41706 78.6619 5.97845C78.6619 6.54559 78.5437 7.04939 78.3071 7.48986C78.0704 7.93034 77.721 8.27724 77.259 8.5306C76.7971 8.78104 76.228 8.9063 75.5521 8.9063H73.3746V7.58919H75.3382C75.7318 7.58919 76.0541 7.5201 76.3051 7.3819C76.5561 7.24373 76.7414 7.05373 76.8612 6.8119C76.9836 6.57007 77.0451 6.29225 77.0451 5.97845C77.0451 5.66464 76.9836 5.38827 76.8612 5.14934C76.7414 4.91037 76.5545 4.72467 76.3009 4.59225C76.0499 4.45694 75.7263 4.38931 75.3297 4.38931H73.8754V11.8946H72.2882ZM80.0407 11.8946V3.0506H81.6276V6.79461H85.6871V3.0506H87.2785V11.8946H85.6871V8.13762H81.6276V11.8946H80.0407ZM88.4056 3.0506H90.1982L92.3412 6.96302H92.4268L94.57 3.0506H96.3623L93.1753 8.59535V11.8946H91.5927V8.59535L88.4056 3.0506ZM102.247 5.48184C102.208 5.1047 102.039 4.81104 101.743 4.6009C101.449 4.39072 101.067 4.28565 100.596 4.28565C100.266 4.28565 99.9817 4.33603 99.745 4.4368C99.5083 4.53757 99.3273 4.67429 99.2016 4.84703C99.0763 5.01978 99.0121 5.21697 99.0092 5.43866C99.0092 5.6229 99.0505 5.78267 99.1332 5.91798C99.2189 6.05329 99.3344 6.16845 99.4796 6.26346C99.6252 6.35559 99.7863 6.43332 99.9631 6.49665C100.14 6.55998 100.318 6.61326 100.498 6.65641L101.319 6.8637C101.65 6.94143 101.968 7.04653 102.273 7.17895C102.581 7.31137 102.856 7.47836 103.099 7.67986C103.344 7.8814 103.538 8.12467 103.681 8.40969C103.823 8.69467 103.894 9.02862 103.894 9.41155C103.894 9.92975 103.763 10.386 103.501 10.7805C103.238 11.172 102.859 11.4786 102.363 11.7002C101.87 11.9191 101.272 12.0284 100.571 12.0284C99.8889 12.0284 99.2973 11.9219 98.7953 11.7089C98.2962 11.4959 97.9055 11.1849 97.6232 10.7761C97.3436 10.3673 97.1925 9.86927 97.1697 9.28199H98.7312C98.7539 9.59001 98.848 9.84624 99.0134 10.0507C99.1788 10.2551 99.3943 10.4076 99.6594 10.5084C99.9276 10.6092 100.227 10.6595 100.558 10.6595C100.903 10.6595 101.205 10.6077 101.465 10.5041C101.727 10.3976 101.932 10.2507 102.081 10.0636C102.229 9.87361 102.305 9.65193 102.307 9.39857C102.305 9.16827 102.238 8.97827 102.106 8.82857C101.975 8.67597 101.791 8.5493 101.555 8.44854C101.321 8.34491 101.047 8.25279 100.733 8.17217L99.7365 7.91308C99.0151 7.72594 98.4447 7.44237 98.0253 7.06234C97.6089 6.67945 97.4009 6.17134 97.4009 5.53798C97.4009 5.01689 97.5405 4.56057 97.8199 4.16907C98.1025 3.77754 98.486 3.47382 98.9708 3.25789C99.4556 3.0391 100.004 2.92969 100.618 2.92969C101.239 2.92969 101.784 3.0391 102.252 3.25789C102.722 3.47382 103.092 3.77464 103.36 4.16042C103.628 4.54332 103.766 4.98379 103.775 5.48184H102.247ZM106.896 3.0506V11.8946H105.309V3.0506H106.896ZM116.114 6.03458H114.514C114.468 5.76972 114.384 5.53508 114.262 5.33069C114.139 5.1234 113.986 4.9478 113.804 4.80385C113.621 4.65993 113.413 4.55196 113.179 4.47998C112.948 4.40512 112.699 4.36771 112.431 4.36771C111.954 4.36771 111.532 4.48863 111.164 4.73046C110.797 4.96939 110.508 5.3206 110.3 5.78411C110.092 6.24473 109.988 6.80756 109.988 7.47261C109.988 8.14913 110.092 8.71915 110.3 9.18267C110.511 9.64328 110.799 9.99163 111.164 10.2277C111.532 10.4609 111.953 10.5775 112.426 10.5775C112.689 10.5775 112.934 10.5429 113.162 10.4738C113.393 10.4019 113.6 10.2968 113.782 10.1586C113.968 10.0204 114.123 9.85057 114.249 9.64904C114.377 9.44754 114.465 9.21721 114.514 8.95809L116.114 8.96674C116.054 9.38706 115.924 9.78146 115.724 10.15C115.528 10.5185 115.27 10.8438 114.95 11.1259C114.631 11.4052 114.257 11.624 113.83 11.7823C113.402 11.9378 112.927 12.0155 112.405 12.0155C111.635 12.0155 110.948 11.8356 110.343 11.4757C109.738 11.1159 109.262 10.5962 108.914 9.91677C108.566 9.23736 108.393 8.42264 108.393 7.47261C108.393 6.51969 108.568 5.70494 108.919 5.02842C109.269 4.34898 109.747 3.82933 110.352 3.46948C110.956 3.10963 111.641 2.92969 112.405 2.92969C112.893 2.92969 113.346 2.99877 113.765 3.13697C114.184 3.27514 114.558 3.47812 114.886 3.74585C115.214 4.01072 115.483 4.33603 115.694 4.72181C115.908 5.1047 116.048 5.54228 116.114 6.03458ZM119.154 3.0506V11.8946H117.567V3.0506H119.154ZM121.998 11.8946H120.304L123.388 3.0506H125.347L128.436 11.8946H126.742L124.402 4.86432H124.333L121.998 11.8946ZM122.053 8.42694H126.673V9.71382H122.053V8.42694ZM136.789 3.0506V11.8946H135.378L131.25 5.87048H131.177V11.8946H129.59V3.0506H131.01L135.134 9.07901H135.211V3.0506H136.789ZM38.6833 26.6843L36.2109 17.8404H37.9176L39.4963 24.3393H39.5773L41.2628 17.8404H42.8158L44.5055 24.3439H44.5824L46.1607 17.8404H47.8677L45.3953 26.6843H43.8296L42.0758 20.4789H42.0071L40.249 26.6843H38.6833ZM48.9681 26.6843V17.8404H54.666V19.1833H50.5553V21.5845H54.371V22.9274H50.5553V25.3414H54.7005V26.6843H48.9681ZM56.2854 26.6843V17.8404H57.8722V25.3414H61.7309V26.6843H56.2854ZM63.1084 26.6843V17.8404H64.6952V25.3414H68.5539V26.6843H63.1084ZM77.1308 17.8404V26.6843H75.7191L71.5912 20.6603H71.5182V26.6843H69.9314V17.8404H71.3515L75.4752 23.8687H75.5524V17.8404H77.1308ZM78.8602 26.6843V17.8404H84.558V19.1833H80.447V21.5845H84.2627V22.9274H80.447V25.3414H84.5922V26.6843H78.8602ZM90.9383 20.2715C90.8982 19.8945 90.7302 19.6007 90.4336 19.3907C90.1396 19.1803 89.7577 19.0755 89.287 19.0755C88.9562 19.0755 88.6726 19.1258 88.4359 19.2267C88.1992 19.3273 88.0179 19.464 87.8925 19.6369C87.7672 19.8094 87.7027 20.0066 87.7001 20.2285C87.7001 20.4125 87.7415 20.5726 87.8242 20.7076C87.9098 20.843 88.025 20.9581 88.1706 21.0531C88.3161 21.1454 88.4773 21.223 88.6541 21.2864C88.8308 21.3498 89.0089 21.4031 89.1886 21.4461L90.0101 21.6535C90.3408 21.7311 90.6589 21.8363 90.964 21.9687C91.272 22.1012 91.5471 22.2681 91.7896 22.4696C92.0348 22.6711 92.2288 22.9143 92.3714 23.1995C92.514 23.4845 92.5853 23.8184 92.5853 24.2013C92.5853 24.7196 92.4541 25.1758 92.1917 25.5702C91.9293 25.9616 91.55 26.2683 91.0538 26.4901C90.5603 26.7087 89.9629 26.8181 89.2616 26.8181C88.5798 26.8181 87.9879 26.7116 87.4862 26.4986C86.9871 26.2857 86.5964 25.9748 86.3142 25.5659C86.0345 25.1571 85.8834 24.6591 85.8606 24.0718H87.4221C87.4449 24.3798 87.539 24.6361 87.7044 24.8406C87.8697 25.0447 88.085 25.1975 88.3503 25.298C88.6182 25.3989 88.9178 25.4492 89.2486 25.4492C89.5937 25.4492 89.8958 25.3976 90.1556 25.2938C90.4177 25.1873 90.6231 25.0404 90.7716 24.8534C90.9197 24.6634 90.9952 24.4416 90.9982 24.1885C90.9952 23.9581 90.9282 23.7681 90.797 23.6183C90.6661 23.4658 90.4821 23.3389 90.2455 23.2383C90.0114 23.1348 89.7376 23.0424 89.424 22.9619L88.4271 22.7029C87.7057 22.5156 87.1353 22.232 86.7163 21.852C86.2999 21.4691 86.0915 20.961 86.0915 20.3277C86.0915 19.8068 86.2315 19.3503 86.5108 18.9588C86.7931 18.5674 87.1766 18.2637 87.6614 18.0478C88.1465 17.8289 88.6954 17.7194 89.3085 17.7194C89.9303 17.7194 90.475 17.8289 90.9425 18.0478C91.4133 18.2637 91.7825 18.5644 92.0504 18.9503C92.3187 19.3332 92.4567 19.7736 92.4655 20.2715H90.9383ZM98.7611 20.2715C98.7214 19.8945 98.5531 19.6007 98.2565 19.3907C97.9628 19.1803 97.5806 19.0755 97.1101 19.0755C96.7794 19.0755 96.4955 19.1258 96.2588 19.2267C96.0221 19.3273 95.8411 19.464 95.7154 19.6369C95.59 19.8094 95.5259 20.0066 95.523 20.2285C95.523 20.4125 95.5643 20.5726 95.647 20.7076C95.7326 20.843 95.8482 20.9581 95.9934 21.0531C96.139 21.1454 96.3001 21.223 96.4769 21.2864C96.6537 21.3498 96.8321 21.4031 97.0115 21.4461L97.8329 21.6535C98.1637 21.7311 98.4818 21.8363 98.7868 21.9687C99.0948 22.1012 99.3703 22.2681 99.6125 22.4696C99.8576 22.6711 100.052 22.9143 100.194 23.1995C100.337 23.4845 100.408 23.8184 100.408 24.2013C100.408 24.7196 100.277 25.1758 100.015 25.5702C99.7521 25.9616 99.3729 26.2683 98.8767 26.4901C98.3834 26.7087 97.786 26.8181 97.0844 26.8181C96.4027 26.8181 95.8111 26.7116 95.3091 26.4986C94.81 26.2857 94.4193 25.9748 94.137 25.5659C93.8573 25.1571 93.7063 24.6591 93.6835 24.0718H95.2449C95.2677 24.3798 95.3618 24.6361 95.5272 24.8406C95.6926 25.0447 95.9081 25.1975 96.1731 25.298C96.4414 25.3989 96.7406 25.4492 97.0714 25.4492C97.4165 25.4492 97.719 25.3976 97.9784 25.2938C98.2408 25.1873 98.446 25.0404 98.5944 24.8534C98.7425 24.6634 98.8184 24.4416 98.821 24.1885C98.8184 23.9581 98.7513 23.7681 98.6201 23.6183C98.4889 23.4658 98.305 23.3389 98.0683 23.2383C97.8345 23.1348 97.5607 23.0424 97.2469 22.9619L96.2503 22.7029C95.5288 22.5156 94.9584 22.232 94.5391 21.852C94.1227 21.4691 93.9146 20.961 93.9146 20.3277C93.9146 19.8068 94.0543 19.3503 94.3337 18.9588C94.6162 18.5674 94.9998 18.2637 95.4846 18.0478C95.9693 17.8289 96.5182 17.7194 97.1313 17.7194C97.7531 17.7194 98.2978 17.8289 98.7657 18.0478C99.2361 18.2637 99.6053 18.5644 99.8736 18.9503C100.142 19.3332 100.28 19.7736 100.288 20.2715H98.7611ZM112.31 20.8243H110.71C110.664 20.5594 110.58 20.3247 110.458 20.1203C110.335 19.9133 110.182 19.7374 110 19.5935C109.818 19.4495 109.609 19.3417 109.375 19.2697C109.145 19.1948 108.895 19.1573 108.627 19.1573C108.151 19.1573 107.728 19.2783 107.36 19.5202C106.993 19.7591 106.705 20.1105 106.496 20.5739C106.288 21.0347 106.184 21.5973 106.184 22.2622C106.184 22.9389 106.288 23.5088 106.496 23.9726C106.708 24.433 106.995 24.7814 107.36 25.0174C107.728 25.2507 108.149 25.3674 108.623 25.3674C108.885 25.3674 109.13 25.3326 109.358 25.2635C109.589 25.1916 109.796 25.0864 109.979 24.9484C110.164 24.8103 110.319 24.6404 110.445 24.4389C110.573 24.2371 110.662 24.0071 110.71 23.7478L112.31 23.7566C112.25 24.177 112.12 24.5714 111.921 24.9398C111.724 25.3082 111.466 25.6336 111.147 25.9156C110.827 26.195 110.453 26.4139 110.026 26.5719C109.598 26.7274 109.123 26.8053 108.601 26.8053C107.831 26.8053 107.144 26.6252 106.539 26.2653C105.935 25.9057 105.458 25.3858 105.11 24.7065C104.763 24.0271 104.589 23.2124 104.589 22.2622C104.589 21.3094 104.764 20.4947 105.115 19.8183C105.466 19.1386 105.943 18.619 106.548 18.2591C107.152 17.8992 107.837 17.7194 108.601 17.7194C109.089 17.7194 109.542 17.7885 109.961 17.9268C110.381 18.0649 110.754 18.268 111.082 18.5355C111.41 18.8004 111.68 19.1258 111.891 19.5116C112.105 19.8945 112.244 20.332 112.31 20.8243ZM113.763 26.6843V17.8404H119.461V19.1833H115.35V21.5845H119.166V22.9274H115.35V25.3414H119.495V26.6843H113.763ZM128.28 17.8404V26.6843H126.868L122.74 20.6603H122.668V26.6843H121.08V17.8404H122.501L126.625 23.8687H126.701V17.8404H128.28ZM135.985 26.6843V17.8404H141.683V19.1833H137.572V21.5845H141.388V22.9274H137.572V25.3414H141.717V26.6843H135.985ZM143.302 26.6843V17.8404H146.588C147.261 17.8404 147.825 17.9584 148.282 18.1944C148.741 18.4307 149.087 18.7616 149.321 19.1876C149.558 19.6109 149.676 20.1045 149.676 20.6689C149.676 21.2361 149.557 21.7285 149.317 22.1459C149.08 22.5603 148.731 22.8814 148.269 23.1088C147.807 23.3333 147.239 23.4457 146.566 23.4457H144.226V22.1156H146.352C146.746 22.1156 147.068 22.0607 147.319 21.9513C147.57 21.8392 147.755 21.6765 147.875 21.4636C147.998 21.2476 148.059 20.9827 148.059 20.6689C148.059 20.355 147.998 20.0875 147.875 19.8656C147.753 19.6411 147.566 19.4712 147.315 19.3562C147.064 19.2382 146.74 19.179 146.344 19.179H144.889V26.6843H143.302ZM147.828 22.677L149.997 26.6843H148.226L146.096 22.677H147.828Z" fill="#112888"/>
<path d="M10.2281 10.7128C9.47862 10.6179 6.03606 10.5755 5.3322 10.7128C4.62835 10.85 3.13147 11.1449 2.51477 11.5671C1.89807 11.9893 1.40584 12.0559 1.00565 12.6588C0.605487 13.2618 0.290007 13.4967 0.167267 14.1886C0.0918644 14.6136 -0.168105 15.3915 0.167267 16.3831C0.340666 17.0588 1.40089 18.3768 1.84406 18.9329C2.2872 19.4893 3.71382 20.7053 4.35923 21.0577C6.87444 22.7575 11.6585 25.0709 12.4079 25.1656L9.22198 22.8992C8.88664 22.7575 7.71285 21.6243 7.37751 21.341C7.08082 21.0905 3.96405 18.0041 3.68856 17.658C3.41302 17.3122 3.22973 17.0247 3.01781 16.6664C2.85014 16.3831 2.5148 15.6748 2.68247 15.2499C2.85014 14.8251 3.28081 14.5715 3.68856 14.4001C4.19156 14.1886 4.02389 14.2585 4.35927 14.1886C4.86231 14.1886 5.60054 14.1886 6.03606 14.1886C6.47158 14.1886 9.05431 14.1168 9.55735 14.5418L10.2281 10.7128Z" fill="#007AFF"/>
<path d="M13.0003 12.8386C12.1807 19.4853 22.4469 28.1794 21.4646 27.9953C20.4824 27.8116 6.54095 19.9211 9.89453 10.9971C13.2481 2.07309 26.7499 3.48956 25.5763 3.91452C24.4026 4.33944 13.8199 6.19174 13.0003 12.8386Z" fill="#007AFF"/>
<path d="M13.9349 3.60855C12.72 4.56062 11.0505 4.70901 10.206 3.93994C9.36155 3.17091 9.66183 1.77567 10.8767 0.823606C12.0917 -0.12846 13.7611 -0.276818 14.6056 0.492217C15.4501 1.26125 15.1498 2.65648 13.9349 3.60855Z" fill="#007AFF"/>
<path d="M28.9602 15.2791C32.817 15.1375 37.344 16.8373 38.1827 16.9789C39.0211 17.1206 32.7056 14.7126 31.3076 14.4293C28.1216 13.4378 22.5221 14.8703 22.5882 14.5709C22.9466 14.2876 25.7742 12.7295 25.2712 11.8796C25.1761 11.7581 25.6065 11.5962 24.4328 10.4631C24.0809 10.3968 22.859 10.246 22.3632 10.3214C21.8677 10.3969 19.2348 10.7463 18.2286 11.4546C16.3842 12.3046 15.8811 13.2961 15.3781 14.1461C14.8751 14.9961 14.875 15.4208 14.875 16.129C14.875 16.8373 15.3781 18.1122 15.3781 18.1122C15.3781 18.1122 15.3782 17.5456 15.3781 16.9789C15.378 16.4123 15.378 16.2707 15.5457 15.5624C15.7134 14.8541 16.2165 14.4294 16.5518 14.0044C16.8871 13.5794 18.5718 12.3905 18.8994 12.3046C19.1892 12.2285 20.1005 11.9265 20.4084 11.8796C20.7168 11.8327 22.3196 11.6473 22.5885 11.6304C22.8011 11.6171 23.4268 11.5874 23.5945 11.8796C23.7622 12.1718 22.9534 12.5171 22.733 12.7295C22.4612 12.9916 21.9556 13.278 21.7498 13.4378C21.405 13.6556 21.0423 13.9575 20.7438 14.146C20.4452 14.3346 20.2408 14.6336 19.9054 15.2791C19.5701 15.9249 20.4085 16.4123 21.0791 16.554C21.7498 16.6956 25.1035 15.4208 28.9602 15.2791Z" fill="#007AFF"/>
</svg>
